<svg xmlns="http://www.w3.org/2000/svg" xmlns:xlink="http://www.w3.org/1999/xlink" version="1.1" width="256" height="256" viewBox="0 0 256 256" xml:space="preserve">

<defs>
</defs>
<g style="stroke: none; stroke-width: 0; stroke-dasharray: none; stroke-linecap: butt; stroke-linejoin: miter; stroke-miterlimit: 10; fill: none; fill-rule: nonzero; opacity: 1;" transform="translate(1.4065934065934016 1.4065934065934016) scale(2.81 2.81)" >
	<path d="M 87.665 50.313 c -1.181 -1.662 -3.018 -2.763 -5.041 -3.018 c -2.027 -0.264 -4.077 0.354 -5.634 1.671 l -12.346 10.45 c -2.962 2.508 -6.499 4.201 -10.253 4.993 V 24.865 c 3.25 0.233 6.503 1.791 9.798 4.71 c 0.041 0.036 0.091 0.053 0.136 0.082 c 0.04 0.025 0.075 0.059 0.118 0.078 c 0.014 0.006 0.027 0.012 0.041 0.017 c 0.063 0.025 0.13 0.032 0.196 0.044 c 0.048 0.008 0.092 0.024 0.141 0.025 c 0.011 0 0.021 0.006 0.032 0.006 c 0.051 0 0.095 -0.022 0.144 -0.029 c 0.071 -0.01 0.14 -0.016 0.208 -0.042 c 0.014 -0.005 0.03 -0.006 0.044 -0.012 c 0.026 -0.011 0.045 -0.034 0.07 -0.047 c 0.026 -0.014 0.049 -0.033 0.073 -0.049 c 0.04 -0.026 0.086 -0.039 0.123 -0.072 c 7.162 -6.343 14.123 -6.342 21.283 0 c 0.048 0.043 0.106 0.064 0.159 0.096 c 0.046 0.027 0.085 0.061 0.135 0.081 c 0.119 0.047 0.243 0.074 0.368 0.074 c 0.141 0 0.275 -0.031 0.396 -0.083 c 0.026 -0.011 0.045 -0.034 0.07 -0.047 c 0.096 -0.052 0.185 -0.11 0.259 -0.189 c 0.007 -0.007 0.017 -0.01 0.024 -0.017 c 0.034 -0.039 0.047 -0.086 0.074 -0.128 c 0.039 -0.059 0.08 -0.115 0.105 -0.182 c 0.026 -0.07 0.033 -0.141 0.043 -0.214 c 0.007 -0.047 0.028 -0.09 0.028 -0.139 c 0 -0.02 -0.002 -0.039 -0.002 -0.059 c 0 -0.001 0 -0.001 0 -0.002 C 88.419 12.951 72.704 0.096 53.392 0.096 c -0.001 0 0 0 -0.001 0 c -19.311 0 -35.027 12.856 -35.068 28.669 c 0 0 0 0.001 0 0.001 c 0 0.02 -0.002 0.04 -0.002 0.06 c 0 0.05 0.021 0.093 0.029 0.141 c 0.01 0.072 0.016 0.142 0.043 0.211 c 0.026 0.069 0.068 0.125 0.108 0.186 c 0.027 0.041 0.039 0.087 0.073 0.125 c 0.007 0.008 0.017 0.011 0.024 0.018 c 0.051 0.055 0.115 0.092 0.178 0.134 c 0.047 0.031 0.088 0.07 0.138 0.093 c 0.051 0.023 0.109 0.028 0.164 0.042 c 0.072 0.019 0.142 0.042 0.217 0.044 c 0.01 0 0.018 0.006 0.028 0.006 c 0.048 0 0.09 -0.021 0.136 -0.028 c 0.074 -0.01 0.146 -0.017 0.217 -0.044 c 0.067 -0.026 0.123 -0.067 0.182 -0.106 c 0.042 -0.027 0.089 -0.04 0.127 -0.074 c 7.16 -6.342 14.123 -6.342 21.283 0 c 0.049 0.043 0.107 0.065 0.161 0.097 c 0.045 0.027 0.084 0.06 0.133 0.08 c 0.119 0.047 0.243 0.074 0.368 0.074 c 0 0 0 0 0 0 s 0 0 0 0 c 0.052 0 0.096 -0.022 0.146 -0.029 c 0.289 0.05 0.595 -0.012 0.831 -0.222 c 3.189 -2.825 6.338 -4.384 9.484 -4.692 v 39.859 c -0.924 0.112 -1.854 0.19 -2.792 0.19 H 7.988 c -3.861 0 -7.001 3.141 -7.001 7.001 s 3.141 7.001 7.001 7.001 h 0.649 l -0.666 1.226 c -1.145 2.104 -1.097 4.59 0.127 6.649 c 1.224 2.059 3.385 3.288 5.78 3.288 c 2.469 0 4.734 -1.349 5.911 -3.519 l 4.148 -7.645 h 22.288 l 4.148 7.645 c 1.177 2.17 3.442 3.519 5.911 3.519 c 2.396 0 4.556 -1.229 5.78 -3.288 c 1.224 -2.06 1.271 -4.545 0.128 -6.649 l -1.091 -2.007 c 3.718 -0.937 7.209 -2.698 10.171 -5.205 l 15.156 -12.829 C 89.348 57.646 89.879 53.432 87.665 50.313 z M 53.392 2.096 c 5.39 0 9.98 11.059 10.423 24.594 c -6.924 -5.249 -13.922 -5.174 -20.847 0.238 c 0.185 -6.56 1.313 -12.658 3.243 -17.328 C 48.183 4.831 50.8 2.096 53.392 2.096 z M 86.341 26.63 c -6.817 -5.125 -13.705 -5.092 -20.523 0.112 c -0.33 -11.084 -3.27 -20.252 -7.455 -24.344 C 73.369 4.235 85.089 14.253 86.341 26.63 z M 20.442 26.631 c 1.252 -12.37 12.959 -22.385 27.952 -24.23 c -1.511 1.48 -2.878 3.646 -4.031 6.435 c -2.009 4.859 -3.188 11.159 -3.391 17.912 C 34.153 21.538 27.263 21.503 20.442 26.631 z M 18.031 85.624 c -0.827 1.524 -2.418 2.472 -4.153 2.472 c -1.683 0 -3.201 -0.863 -4.061 -2.311 c -0.86 -1.446 -0.894 -3.193 -0.09 -4.672 l 1.186 -2.181 h 10.748 L 18.031 85.624 z M 59.249 78.933 l 1.186 2.181 c 0.805 1.479 0.771 3.225 -0.089 4.672 c -0.86 1.447 -2.379 2.311 -4.062 2.311 c -1.735 0 -3.326 -0.947 -4.153 -2.472 l -3.63 -6.691 h 6.433 H 59.249 z M 85.136 58.59 L 69.979 71.419 c -4.199 3.556 -9.543 5.514 -15.046 5.514 H 45.14 H 25.022 H 9.724 H 7.988 c -2.758 0 -5.001 -2.243 -5.001 -5.001 s 2.244 -5.001 5.001 -5.001 H 49.6 c 1.273 0 2.534 -0.117 3.781 -0.306 c 0.004 0 0.007 0.002 0.01 0.002 c 0.018 0 0.033 -0.009 0.051 -0.01 c 4.582 -0.707 8.921 -2.648 12.495 -5.672 l 12.346 -10.45 c 1.146 -0.971 2.6 -1.398 4.091 -1.215 c 1.49 0.188 2.79 0.967 3.66 2.192 C 87.643 53.735 87.256 56.796 85.136 58.59 z" style="stroke: none; stroke-width: 1; stroke-dasharray: none; stroke-linecap: butt; stroke-linejoin: miter; stroke-miterlimit: 10; fill: rgb(0,0,0); fill-rule: nonzero; opacity: 1;" transform=" matrix(1 0 0 1 0 0) " stroke-linecap="round" />
</g>
</svg>