<svg xmlns="http://www.w3.org/2000/svg" xmlns:xlink="http://www.w3.org/1999/xlink" version="1.1" width="256" height="256" viewBox="0 0 256 256" xml:space="preserve">

<defs>
</defs>
<g style="stroke: none; stroke-width: 0; stroke-dasharray: none; stroke-linecap: butt; stroke-linejoin: miter; stroke-miterlimit: 10; fill: none; fill-rule: nonzero; opacity: 1;" transform="translate(1.4065934065934016 1.4065934065934016) scale(2.81 2.81)" >
	<path d="M 89.078 14.977 c -0.725 -0.845 -1.781 -1.33 -2.895 -1.33 h -3.623 c -0.626 0 -1.229 -0.264 -1.655 -0.724 L 78.188 9.98 c -2.498 -2.707 -6.163 -3.976 -9.837 -3.389 C 59.692 8.29 54.121 14.545 53.81 22.98 c 0.111 3.973 -8.203 4.493 -17.007 5.043 c -9.239 0.578 -19.521 1.235 -24.523 6.034 c -5.876 -2.205 -9.608 -11.002 -8.365 -20.021 c 0.072 -0.524 -0.275 -1.013 -0.794 -1.117 c -0.518 -0.106 -1.028 0.212 -1.163 0.724 C -1.239 25.686 -1.57 32.375 9.153 40.857 c -0.715 4.333 -0.361 9.205 -0.038 13.633 l 0.016 0.215 c -0.451 3.327 -2.025 6.635 -4.678 9.833 c -0.182 0.22 -0.262 0.506 -0.219 0.787 l 2.61 17.374 c 0.073 0.489 0.494 0.851 0.989 0.851 h 10.339 c 0.552 0 1 -0.447 1 -1 v -2.935 c 0 -1.55 -0.931 -2.919 -2.373 -3.49 l -0.888 -0.35 c -1.874 -0.781 -3.086 -2.597 -3.086 -4.628 v -4.705 c 7.18 -1.683 12.32 -6.248 14.062 -12.445 c 7.293 3.697 19.069 2.858 26.215 -0.527 l 4.095 29.219 c 0.069 0.494 0.491 0.861 0.99 0.861 h 11.062 c 0.553 0 1 -0.447 1 -1 v -3.208 c 0 -1.846 -1.509 -3.348 -3.428 -3.348 c -1.242 0 -2.303 -0.886 -2.522 -2.106 c -0.873 -4.854 1.333 -10.357 3.667 -16.184 c 0.876 -2.187 1.783 -4.45 2.552 -6.726 c 2.498 -6.295 4.006 -10.543 3.571 -18.222 c -0.099 -2.378 2.098 -5.025 4.536 -5.544 l 7.284 -0.944 c 1.677 -0.218 3.027 -1.537 3.282 -3.21 l 0.765 -5.019 C 90.123 16.938 89.803 15.822 89.078 14.977 z" style="stroke: none; stroke-width: 1; stroke-dasharray: none; stroke-linecap: butt; stroke-linejoin: miter; stroke-miterlimit: 10; fill: rgb(0,0,0); fill-rule: nonzero; opacity: 1;" transform=" matrix(1 0 0 1 0 0) " stroke-linecap="round" />
</g>
</svg>